<svg width="13" height="15" viewBox="0 0 13 15" fill="none" xmlns="http://www.w3.org/2000/svg">
<path d="M3.91737 5.51655L5.21188 7.52527L6.11952 6.48371L4.76549 4.89161C5.34579 4.04349 5.197 2.64483 4.334 1.49912C3.3222 0.145095 1.70034 -0.375685 0.718303 0.353404C-0.263736 1.08249 -0.233974 2.77875 0.777824 4.13277C1.65571 5.29336 2.95021 5.82902 3.91737 5.51655Z" fill="#030A1B"/>
<path d="M7.77172 8.43262L6.78969 9.9652L9.17039 13.6404C9.51261 14.1761 10.2417 14.31 10.7625 13.9231L10.8518 13.8487C11.3577 13.4618 11.4469 12.7328 11.0303 12.2417L7.77172 8.43262Z" fill="#030A1B"/>
<path d="M12.9208 1.60347C12.7869 1.43979 12.534 1.45467 12.4149 1.61834C12.4149 1.61834 10.7187 3.79073 10.2426 4.40079C10.1682 4.49006 10.0342 4.50494 9.94496 4.44542C9.85569 4.37103 9.82593 4.25199 9.90033 4.14784L11.9388 1.27612C12.0281 1.15708 12.0281 0.978533 11.9239 0.859498C11.79 0.695825 11.5371 0.710701 11.418 0.874374C11.418 0.874374 9.72178 3.04676 9.24564 3.65682C9.17124 3.74609 9.03733 3.76097 8.94805 3.70145C8.85878 3.62706 8.82901 3.50802 8.90341 3.40387C9.36467 2.76405 10.9568 0.517274 10.9568 0.517274C11.0758 0.353601 11.0163 0.115524 10.8229 0.0262475C10.6889 -0.03327 10.5253 0.01137 10.4211 0.130405L8.12969 3.07652L7.8321 3.46339C7.53451 3.86513 7.4006 4.34127 7.46012 4.7579L7.59403 5.6209L1.89523 12.2273C1.4786 12.7184 1.56788 13.4474 2.07378 13.8343L2.16305 13.9087C2.66895 14.2956 3.39804 14.1617 3.75515 13.626L8.45703 6.29047L9.33491 6.17144C9.75154 6.11192 10.1682 5.84409 10.4806 5.44234L10.7782 5.05548L12.9357 2.02009C13.025 1.90105 13.025 1.7225 12.9208 1.60347Z" fill="#030A1B"/>
</svg>
